<svg id="layer" xmlns="http://www.w3.org/2000/svg" viewBox="70 70 500 500"><style>.st1{fill:#3a3532}</style><path fill="transparent" d="M163.1 76h327.1v500H163.1z"/><path class="st1" d="M236.4 154c-.6-.9-1.3-1.7-2.1-2.4-.9-.7-1.8-1.2-2.9-1.6-1.1-.4-2.2-.6-3.4-.6-2.2 0-4 .4-5.5 1.3-1.5.8-2.7 2-3.7 3.4-.9 1.4-1.6 3-2 4.8-.4 1.8-.6 3.6-.6 5.6 0 1.8.2 3.6.6 5.4.4 1.7 1.1 3.3 2 4.7.9 1.4 2.2 2.5 3.7 3.3 1.5.8 3.3 1.3 5.5 1.3 2.9 0 5.2-.9 6.9-2.7 1.7-1.8 2.7-4.2 3-7.1h9.3c-.2 2.7-.9 5.2-1.9 7.4-1 2.2-2.4 4.1-4 5.6-1.7 1.5-3.6 2.7-5.9 3.5-2.2.8-4.7 1.2-7.4 1.2-3.3 0-6.4-.6-9-1.7-2.7-1.2-4.9-2.8-6.8-4.8-1.8-2-3.2-4.4-4.2-7.2-1-2.7-1.5-5.7-1.5-8.9 0-3.3.5-6.3 1.5-9.1s2.4-5.2 4.2-7.3c1.8-2.1 4.1-3.7 6.8-4.9 2.7-1.2 5.7-1.8 9-1.8 2.4 0 4.7.3 6.8 1 2.1.7 4.1 1.7 5.7 3 1.7 1.3 3.1 3 4.2 4.9 1.1 2 1.8 4.2 2.1 6.7h-9.3c-.2-1.1-.5-2.1-1.1-3M260.8 178.4c1.3 1.3 3.2 1.9 5.6 1.9 1.8 0 3.3-.4 4.5-1.3 1.3-.9 2-1.8 2.3-2.8h7.6c-1.2 3.8-3.1 6.5-5.6 8.1-2.5 1.6-5.6 2.4-9.2 2.4-2.5 0-4.7-.4-6.7-1.2-2-.8-3.7-1.9-5.1-3.4-1.4-1.5-2.5-3.2-3.2-5.3-.8-2-1.1-4.3-1.1-6.7 0-2.4.4-4.6 1.2-6.6.8-2 1.9-3.8 3.3-5.3s3.1-2.7 5.1-3.5c2-.9 4.2-1.3 6.6-1.3 2.7 0 5 .5 7 1.6 2 1 3.6 2.4 4.9 4.2 1.3 1.8 2.2 3.8 2.8 6 .6 2.2.8 4.6.6 7h-22.8c.2 2.9.9 4.9 2.2 6.2m9.9-16.6c-1-1.1-2.6-1.7-4.7-1.7-1.4 0-2.5.2-3.5.7-.9.5-1.6 1.1-2.2 1.7-.5.7-.9 1.4-1.2 2.2-.2.8-.4 1.5-.4 2.1h14.1c-.4-2.2-1.1-3.9-2.1-5M293.7 154.4v5.9h.1c.4-1 1-1.9 1.6-2.7.7-.8 1.5-1.5 2.4-2.1.9-.6 1.9-1 2.9-1.4 1-.3 2.1-.5 3.2-.5.6 0 1.2.1 1.9.3v8.1c-.4-.1-.9-.2-1.5-.2-.6-.1-1.1-.1-1.6-.1-1.6 0-2.9.3-4 .8s-2 1.3-2.7 2.2c-.7.9-1.2 2-1.4 3.2-.3 1.2-.4 2.5-.4 4V186h-8.7v-31.6h8.2zM329 154.4v5.8h-6.4v15.7c0 1.5.2 2.4.7 2.9.5.5 1.5.7 2.9.7.5 0 1 0 1.4-.1.4 0 .9-.1 1.3-.2v6.7c-.7.1-1.6.2-2.4.2-.9 0-1.8.1-2.6.1-1.3 0-2.6-.1-3.8-.3-1.2-.2-2.3-.5-3.2-1.1-.9-.5-1.6-1.3-2.2-2.3-.5-1-.8-2.3-.8-3.8V160h-5.3v-5.8h5.3v-9.5h8.7v9.5h6.4zM333.4 142.3h8.7v7.2h-8.7v-7.2zm8.7 43.7h-8.7v-31.6h8.7V186zM345.7 160.2v-5.8h5.2V152c0-2.8.9-5.1 2.6-6.9 1.8-1.8 4.4-2.7 8-2.7.8 0 1.5 0 2.3.1.8.1 1.5.1 2.3.2v6.5c-1-.1-2.1-.2-3.2-.2-1.2 0-2 .3-2.5.8s-.8 1.5-.8 2.8v1.9h6v5.8h-6V186h-8.7v-25.8h-5.2zM370.8 142.3h8.7v7.2h-8.7v-7.2zm8.7 43.7h-8.7v-31.6h8.7V186zM393.2 178.4c1.3 1.3 3.2 1.9 5.6 1.9 1.8 0 3.3-.4 4.5-1.3 1.3-.9 2-1.8 2.3-2.8h7.6c-1.2 3.8-3.1 6.5-5.6 8.1-2.5 1.6-5.6 2.4-9.2 2.4-2.5 0-4.7-.4-6.7-1.2-2-.8-3.7-1.9-5.1-3.4-1.4-1.5-2.5-3.2-3.2-5.3-.8-2-1.1-4.3-1.1-6.7 0-2.4.4-4.6 1.2-6.6.8-2 1.9-3.8 3.3-5.3s3.1-2.7 5.1-3.5c2-.9 4.2-1.3 6.6-1.3 2.7 0 5 .5 7 1.6 2 1 3.6 2.4 4.9 4.2 1.3 1.8 2.2 3.8 2.8 6 .6 2.2.8 4.6.6 7H391c.2 2.9.9 4.9 2.2 6.2m9.8-16.6c-1-1.1-2.6-1.7-4.7-1.7-1.4 0-2.5.2-3.5.7-.9.5-1.7 1.1-2.2 1.7-.6.7-.9 1.4-1.2 2.2-.2.8-.4 1.5-.4 2.1h14.1c-.3-2.2-1.1-3.9-2.1-5M440.2 181.9c-1 1.7-2.4 2.9-4 3.7-1.7.8-3.5 1.1-5.6 1.1-2.4 0-4.4-.5-6.2-1.4-1.8-.9-3.3-2.2-4.4-3.7-1.2-1.6-2-3.4-2.6-5.4-.6-2-.9-4.2-.9-6.4 0-2.1.3-4.2.9-6.1.6-2 1.5-3.7 2.6-5.2 1.2-1.5 2.6-2.7 4.4-3.6 1.8-.9 3.8-1.4 6.1-1.4 1.9 0 3.7.4 5.3 1.2 1.7.8 3 2 4 3.5h.1v-15.9h8.7V186h-8.3v-4h-.1zm-.4-15.6c-.2-1.2-.7-2.3-1.3-3.2-.6-.9-1.4-1.7-2.3-2.2-.9-.6-2.1-.9-3.5-.9s-2.6.3-3.6.9c-1 .6-1.8 1.3-2.4 2.3-.6.9-1 2-1.3 3.2-.3 1.2-.4 2.5-.4 3.8 0 1.2.1 2.4.4 3.7.3 1.2.8 2.3 1.4 3.3.6 1 1.4 1.7 2.4 2.3 1 .6 2.1.9 3.5.9s2.6-.3 3.6-.9c1-.6 1.7-1.3 2.3-2.3.6-1 1-2 1.2-3.3.2-1.2.4-2.5.4-3.8 0-1.3-.1-2.6-.4-3.8M275.5 257h50.6c12.3 0 28.5 0 36.9 5.1 9.2 5.5 16.4 15.4 16.4 29.1 0 14.8-7.8 26-20.7 31.3v.4c17.2 3.5 26.6 16.4 26.6 33.6 0 20.5-14.7 40.1-42.4 40.1h-67.4V257zm18.6 60h37.2c21.1 0 29.7-7.6 29.7-22.3 0-19.4-13.7-22.1-29.7-22.1h-37.2V317zm0 63.9h46.5c16 0 26.2-9.8 26.2-25 0-18.2-14.7-23.3-30.3-23.3h-42.4v48.3z"/><path class="st1" d="M432.8 326.8c0 58.6-47.5 106.1-106.2 106.1-58.6 0-106.1-47.5-106.1-106.1 0-58.6 47.5-106.1 106.1-106.1 58.7 0 106.2 47.5 106.2 106.1M326.7 204.5c-67.5 0-122.3 54.7-122.3 122.3 0 67.5 54.7 122.3 122.3 122.3 67.5 0 122.3-54.7 122.3-122.3s-54.8-122.3-122.3-122.3M227 475.4c-.4-3.1-3.4-5.4-6.8-5.4-6.1 0-8.4 5.2-8.4 10.6 0 5.1 2.3 10.3 8.4 10.3 4.2 0 6.5-2.9 7-6.9h6.6c-.7 7.7-6 12.6-13.6 12.6-9.6 0-15.2-7.1-15.2-16.1 0-9.2 5.6-16.3 15.2-16.3 6.8 0 12.5 4 13.3 11.1H227zM248 473c7.1 0 11.6 4.7 11.6 11.8 0 7.1-4.5 11.8-11.6 11.8-7 0-11.6-4.7-11.6-11.8.1-7.2 4.6-11.8 11.6-11.8m0 18.9c4.2 0 5.5-3.6 5.5-7.1 0-3.6-1.3-7.2-5.5-7.2s-5.4 3.6-5.4 7.2c0 3.5 1.3 7.1 5.4 7.1M263.2 473.6h5.8v4.2h.1c1.1-2.8 4.2-4.8 7.1-4.8.4 0 .9.1 1.3.2v5.7c-.6-.1-1.5-.2-2.2-.2-4.5 0-6.1 3.2-6.1 7.2V496h-6.1v-22.4zM280.9 473.6h5.8v2.9h.1c1.5-2.4 3.9-3.5 6.7-3.5 7 0 10.2 5.7 10.2 12 0 6-3.3 11.6-9.8 11.6-2.7 0-5.2-1.2-6.7-3.4h-.2v10.7h-6.1v-30.3zm16.6 11.2c0-3.6-1.4-7.2-5.4-7.2s-5.3 3.6-5.3 7.2 1.4 7.1 5.4 7.1 5.3-3.4 5.3-7.1M318.2 473c7.1 0 11.6 4.7 11.6 11.8 0 7.1-4.6 11.8-11.6 11.8s-11.6-4.7-11.6-11.8c0-7.2 4.6-11.8 11.6-11.8m0 18.9c4.2 0 5.5-3.6 5.5-7.1 0-3.6-1.3-7.2-5.5-7.2s-5.4 3.6-5.4 7.2c0 3.5 1.2 7.1 5.4 7.1M333.9 473.6h5.8v4.2h.1c1.1-2.8 4.2-4.8 7.1-4.8.4 0 1 .1 1.3.2v5.7c-.6-.1-1.5-.2-2.2-.2-4.5 0-6.1 3.2-6.1 7.2V496h-6.1v-22.4zM350.5 480.5c.4-5.8 5.5-7.5 10.5-7.5 4.5 0 9.8 1 9.8 6.4V491c0 2 .2 4.1.8 5h-6.2c-.2-.7-.4-1.4-.4-2.2-1.9 2-4.8 2.8-7.5 2.8-4.2 0-7.6-2.1-7.6-6.7 0-5.1 3.8-6.3 7.6-6.8 3.8-.6 7.3-.4 7.3-2.9 0-2.6-1.8-3-4-3-2.3 0-3.9.9-4.1 3.4h-6.2zm14.2 4.5c-1 .9-3.2 1-5.1 1.3-1.9.4-3.6 1-3.6 3.3s1.8 2.9 3.8 2.9c4.8 0 5-3.8 5-5.1V485zM383.4 473.6h4.5v4.1h-4.5v11.1c0 2.1.5 2.6 2.6 2.6.7 0 1.3 0 1.9-.2v4.8c-1 .2-2.4.2-3.6.2-3.8 0-7-.9-7-5.3v-13.2h-3.7v-4.1h3.7v-6.7h6.1v6.7zM397.1 470.1H391V465h6.1v5.1zm-6.1 3.5h6.1V496H391v-22.4zM412 473c7.1 0 11.6 4.7 11.6 11.8 0 7.1-4.6 11.8-11.6 11.8s-11.5-4.7-11.5-11.8c-.1-7.2 4.5-11.8 11.5-11.8m0 18.9c4.2 0 5.5-3.6 5.5-7.1 0-3.6-1.2-7.2-5.5-7.2-4.2 0-5.4 3.6-5.4 7.2 0 3.5 1.2 7.1 5.4 7.1M427.5 473.6h5.8v3.1h.1c1.6-2.5 4.2-3.7 6.8-3.7 6.5 0 8.2 3.7 8.2 9.2V496h-6.1v-12.6c0-3.7-1.1-5.5-3.9-5.5-3.3 0-4.8 1.9-4.8 6.4V496h-6.1v-22.4zM204.9 515h243.7v15.6H204.9zM452.1 464.1h-1.4v3.9h-.7v-3.9h-1.4v-.6h3.6v.6zm6 3.9h-.7v-3.8l-1.5 3.8h-.5l-1.5-3.8v3.8h-.8v-4.5h1.2l1.4 3.4 1.3-3.4h1.2v4.5z"/></svg>